{
    "asset": {
        "version": "2.0",
        "generator": "Open Asset Import Library (assimp v5.4.0)"
    },
    "extensionsUsed": [
        "KHR_materials_specular",
        "KHR_materials_volume",
        "KHR_materials_ior",
        "FB_ngon_encoding"
    ],
    "accessors": [
        {
            "bufferView": 0,
            "byteOffset": 0,
            "componentType": 5126,
            "count": 30867,
            "type": "VEC3",
            "max": [
                0.9984890222549438,
                0.32631000876426697,
                0.7567970156669617
            ],
            "min": [
                -1.001723051071167,
                -0.32926899194717407,
                -0.7577660083770752
            ]
        },
        {
            "bufferView": 1,
            "byteOffset": 0,
            "componentType": 5126,
            "count": 30867,
            "type": "VEC3",
            "max": [
                1.0,
                0.9999873638153076,
                0.9999911785125732
            ],
            "min": [
                -1.0,
                -0.9999996423721313,
                -0.9999979734420776
            ]
        },
        {
            "bufferView": 2,
            "byteOffset": 0,
            "componentType": 5125,
            "count": 185238,
            "type": "SCALAR",
            "max": [
                30866
            ],
            "min": [
                0
            ]
        }
    ],
    "buffers": [
        {
            "byteLength": 1481760,
            "uri": "黒縁のボストン_0926062927_preview.bin"
        }
    ],
    "bufferViews": [
        {
            "buffer": 0,
            "byteOffset": 0,
            "byteLength": 370404,
            "target": 34962
        },
        {
            "buffer": 0,
            "byteOffset": 370404,
            "byteLength": 370404,
            "target": 34962
        },
        {
            "buffer": 0,
            "byteOffset": 740808,
            "byteLength": 740952,
            "target": 34963
        }
    ],
    "materials": [
        {
            "name": "DefaultMaterial",
            "pbrMetallicRoughness": {
                "baseColorFactor": [
                    0.6000000238418579,
                    0.6000000238418579,
                    0.6000000238418579,
                    1.0
                ],
                "metallicFactor": 0.0
            },
            "extensions": {
                "KHR_materials_specular": {
                    "specularFactor": 1.0,
                    "specularColorFactor": [
                        0.0,
                        0.0,
                        0.0
                    ]
                },
                "KHR_materials_ior": {
                    "ior": 1.0
                }
            }
        }
    ],
    "meshes": [
        {
            "name": "Mesh0",
            "primitives": [
                {
                    "mode": 4,
                    "material": 0,
                    "indices": 2,
                    "attributes": {
                        "POSITION": 0,
                        "NORMAL": 1
                    }
                }
            ]
        }
    ],
    "nodes": [
        {
            "name": "黒縁のボストン_0926062927_preview.obj",
            "children": [
                1
            ]
        },
        {
            "name": "Mesh0",
            "mesh": 0
        }
    ],
    "scenes": [
        {
            "nodes": [
                0
            ]
        }
    ],
    "scene": 0
}